<svg width="20" height="18" viewBox="0 0 20 18" fill="none" xmlns="http://www.w3.org/2000/svg">
<path fill-rule="evenodd" clip-rule="evenodd" d="M12.4276 1.07923C13.085 0.806862 13.7895 0.666672 14.5011 0.666672C15.2126 0.666672 15.9172 0.806862 16.5745 1.07923C17.2318 1.35156 17.8289 1.75068 18.3319 2.2538C18.835 2.75676 19.2344 3.35418 19.5067 4.0114C19.7791 4.66875 19.9193 5.37332 19.9193 6.08486C19.9193 6.7964 19.7791 7.50097 19.5067 8.15832C19.2344 8.8156 18.8352 9.41279 18.332 9.91578C18.332 9.91583 18.3321 9.91574 18.332 9.91578L10.9653 17.2824C10.6399 17.6079 10.1123 17.6079 9.78683 17.2824L2.42016 9.91578C1.40414 8.89976 0.833344 7.52173 0.833344 6.08486C0.833344 4.64798 1.40414 3.26996 2.42016 2.25394C3.43619 1.23791 4.81421 0.667117 6.25109 0.667117C7.68796 0.667117 9.06598 1.23791 10.082 2.25394L10.3761 2.54802L10.67 2.25408C10.6701 2.25403 10.67 2.25412 10.67 2.25408C11.173 1.75089 11.7703 1.35158 12.4276 1.07923ZM14.5011 2.33334C14.0085 2.33334 13.5207 2.43039 13.0656 2.61896C12.6105 2.80752 12.1971 3.0839 11.8488 3.43231L10.9653 4.31578C10.6399 4.64122 10.1123 4.64122 9.78683 4.31578L8.9035 3.43245C8.20003 2.72899 7.24593 2.33378 6.25109 2.33378C5.25624 2.33378 4.30214 2.72899 3.59867 3.43245C2.89521 4.13591 2.50001 5.09001 2.50001 6.08486C2.50001 7.07971 2.89521 8.03381 3.59867 8.73727L10.3761 15.5147L17.1535 8.73727C17.5019 8.38903 17.7784 7.97541 17.967 7.52033C18.1556 7.06524 18.2526 6.57746 18.2526 6.08486C18.2526 5.59226 18.1556 5.10448 17.967 4.64939C17.7784 4.1943 17.502 3.78083 17.1536 3.43259C16.8054 3.08418 16.3916 2.80752 15.9366 2.61896C15.4815 2.43039 14.9937 2.33334 14.5011 2.33334Z"/>
</svg>
