<svg width="18" height="20" viewBox="0 0 18 20" fill="none" xmlns="http://www.w3.org/2000/svg">
<path fill-rule="evenodd" clip-rule="evenodd" d="M8.48838 1.00888C8.78931 0.774823 9.21069 0.774823 9.51161 1.00888L17.0116 6.84221C17.2146 7.00009 17.3333 7.24284 17.3333 7.5V16.6667C17.3333 17.3297 17.0699 17.9656 16.6011 18.4344C16.1323 18.9033 15.4964 19.1667 14.8333 19.1667H3.16666C2.50362 19.1667 1.86774 18.9033 1.3989 18.4344C0.930056 17.9656 0.666664 17.3297 0.666664 16.6667V7.5C0.666664 7.24284 0.785392 7.00009 0.98838 6.84221L8.48838 1.00888ZM2.33333 7.90757V16.6667C2.33333 16.8877 2.42113 17.0996 2.57741 17.2559C2.73369 17.4122 2.94565 17.5 3.16666 17.5H14.8333C15.0543 17.5 15.2663 17.4122 15.4226 17.2559C15.5789 17.0996 15.6667 16.8877 15.6667 16.6667V7.90757L9 2.72239L2.33333 7.90757Z"/>
<path fill-rule="evenodd" clip-rule="evenodd" d="M5.66666 10C5.66666 9.53976 6.03976 9.16667 6.5 9.16667H11.5C11.9602 9.16667 12.3333 9.53976 12.3333 10V18.3333C12.3333 18.7936 11.9602 19.1667 11.5 19.1667C11.0398 19.1667 10.6667 18.7936 10.6667 18.3333V10.8333H7.33333V18.3333C7.33333 18.7936 6.96024 19.1667 6.5 19.1667C6.03976 19.1667 5.66666 18.7936 5.66666 18.3333V10Z"/>
</svg>
